<svg id="Layer_1" data-name="Layer 1" xmlns="http://www.w3.org/2000/svg" viewBox="0 0 100 71.73"><defs><style>.cls-1{fill:#f9d441;}</style></defs><title>icon-arthopenia</title><path class="cls-1" d="M590,551.31l-.28-.51a33.58,33.58,0,0,0-4.29-6.61,24.64,24.64,0,0,0-10.26-7.31,37.36,37.36,0,0,0-8.4-1.85,44.64,44.64,0,0,0-7.34-.27c-2.12.11-4.24.31-6.36.48l-5.78.49-6.78.59-2.11.18v7.91l1.37-.1,7.79-.68,7.67-.67a52.35,52.35,0,0,1,8.85-.24,25.16,25.16,0,0,1,7,1.26,11.79,11.79,0,0,1,7.8,9.51,13,13,0,0,1,.16,2.08c0,1.27,0,2.55,0,3.93a15.75,15.75,0,0,0-11.74-8.65A15.13,15.13,0,0,0,556,553.32a15.34,15.34,0,0,0-6.79,10.4,15.66,15.66,0,0,0,2.84,12.14h-4.88a8.1,8.1,0,0,1-5.43-2,6.66,6.66,0,0,1-1.18-1.52,27.37,27.37,0,0,1-3.14-7.71,55.22,55.22,0,0,1-1.58-9.88c-.23-3-.26-6-.2-8.93,0-2.35.14-4.7.12-7a75,75,0,0,0-5.8-28.94c-.77-1.81-1.72-3.55-2.58-5.32l-.17-.35h43.68a8.23,8.23,0,0,1,8,7.17,11.45,11.45,0,0,1,.08,1.27q0,7,0,14a.76.76,0,0,0,.27.63,31.93,31.93,0,0,1,9.87,17.24,38,38,0,0,1,.84,6.28C590,550.87,590,551,590,551.31Z" transform="translate(-490 -504.14)"/><path class="cls-1" d="M534.1,575.84l-.35,0q-9.23,0-18.47,0a8.23,8.23,0,0,1-7.9-6.93,10.52,10.52,0,0,1-.1-1.39q0-5.32,0-10.65a.71.71,0,0,0-.37-.68,42.27,42.27,0,0,1-14.69-16.07,27.6,27.6,0,0,1-2.17-6c0-.1,0-.2-.06-.35a63.75,63.75,0,0,0,9.33,8.59,20,20,0,0,0,8.9,3.73,33.31,33.31,0,0,0,8.91.19c2.76-.27,5.52-.49,8.28-.73l2.54-.23c.13,0,.25,0,.42,0,0,.22,0,.44,0,.65a88.43,88.43,0,0,0,.45,11.86,49.57,49.57,0,0,0,3.65,14.69C533,573.66,533.55,574.72,534.1,575.84Z" transform="translate(-490 -504.14)"/><path class="cls-1" d="M528.39,534.48l-.17.11c-.39-.43-.76-.87-1.17-1.28l-10.14-10-2.51-2.47a.45.45,0,0,1-.14-.54,5.25,5.25,0,0,0-6.67-6.74l-.15,0h-.12a10.59,10.59,0,0,1,.27-3.44,8.29,8.29,0,0,1,8-6,5.12,5.12,0,0,1,4.77,2.67,52.29,52.29,0,0,1,4.79,10.75,67.09,67.09,0,0,1,2.8,12.55C528.09,531.56,528.23,533,528.39,534.48Z" transform="translate(-490 -504.14)"/><path class="cls-1" d="M526,537.59l-2.51.23-7.63.68c-1.22.11-2.44.27-3.66.3a4.86,4.86,0,0,1-4.91-4.72c0-3.48,0-7,0-10.45a2.34,2.34,0,0,1,0-.24c.46.1.9.21,1.35.29a4.66,4.66,0,0,0,2.5-.29.45.45,0,0,1,.57.11q4.23,4.2,8.48,8.37l5.6,5.51Z" transform="translate(-490 -504.14)"/></svg>